<svg xmlns="http://www.w3.org/2000/svg" width="1em" height="1em" viewBox="0 0 48 48"><rect x="0" y="0" width="48" height="48" fill="rgba(255, 255, 255, 0)" /><mask id="ipTTvOne0"><g fill="none" stroke="#fff" stroke-linejoin="round" stroke-width="4"><path fill="#555" d="M42 12H6a2 2 0 0 0-2 2v26a2 2 0 0 0 2 2h36a2 2 0 0 0 2-2V14a2 2 0 0 0-2-2Z"/><path fill="#555" d="M31 19H11v16h20V19Z"/><path stroke-linecap="round" d="m14 4.5l9.09 7.5L34 2m4 16v1m0 6v1"/></g></mask><path fill="currentColor" d="M0 0h48v48H0z" mask="url(#ipTTvOne0)"/></svg>